<?xml version="1.0" encoding="UTF-8" standalone="no"?>
<!-- Created with Inkscape (http://www.inkscape.org/) -->
<svg width="650" height="550" viewBox="0 0 650 550" version="1.1" id="svg1" xml:space="preserve" xmlns="http://www.w3.org/2000/svg" xmlns:svg="http://www.w3.org/2000/svg"><g id="layer2" style="display:inline"><path style="display:inline;fill:#FFFFFF" d="m 263.27001,270.08382 h 18.01933 L 378.34987,65.135867 h -18.06508 z" id="path6"/><path style="display:inline;fill:#FFFFFF" d="m 363.27094,270.11709 18.12743,0.0323 -78.08896,-160.01462 -18.00872,-0.0175 z" id="path7"/><path style="fill:#FFFFFF" d="m 283.29928,65.139507 10.03305,28.01501 -17.98391,-0.0134 -10.21077,-27.98269 z" id="path8"/><path style="display:inline;fill:#FFFFFF" d="m 246.30159,245.14506 0.023,-150.015343 96.96077,0.0224 -6.36802,12.959863 -75.60971,0.0161 -0.0162,62.02151 46.3371,-0.002 -6.06335,12.98615 -40.24841,-0.0161 -0.0436,62.02922 z" id="path9"/><path style="display:inline;fill:#FFFFFF" d="m 335.25594,170.14198 34.08423,-0.005 c 0,0 20.6397,-0.0784 20.8982,-32.52022 0.2585,-32.44182 -28.55075,-29.45014 -28.55075,-29.45014 l 6.04245,-13.086593 c 0,0 35.7022,0.95599 35.5729,43.091583 -0.1292,42.1356 -22.1137,40.2804 -22.1137,40.2804 0,0 18.0226,5.40378 18.119,18.71681 0.1329,18.36163 -0.014,47.962 -0.014,47.962 l -16.0179,0.0229 -0.1977,-34.2977 c 0,0 1.2925,-21.84329 -12.0203,-25.59155 -12.6706,-3.56746 -28.75697,-2.1444 -28.75697,-2.1444 z" id="path10"/></g></svg>