<?xml version="1.0" encoding="UTF-8" standalone="no"?>
<!-- Created with Inkscape (http://www.inkscape.org/) -->
<svg width="650" height="550" viewBox="0 0 650 550" version="1.1" id="svg1" xml:space="preserve" xmlns="http://www.w3.org/2000/svg" xmlns:svg="http://www.w3.org/2000/svg"><defs id="defs1"><rect x="713.60242" y="702.63519" width="1054.3184" height="225.92535" id="rect2"/><rect x="710.67786" y="711.409" width="245.66641" height="89.200302" id="rect1"/></defs><path style="font-size:117.333px;font-family:SciFly;-inkscape-font-specification:SciFly;white-space:pre;fill:white;" d="m 109.4848,494.96233 q -2.93332,0 -4.34132,-3.16799 L 91.298184,461.99176 q -0.704,-1.64267 -2.464,-1.64267 h -11.14663 q -1.17333,0 -1.17333,1.17333 v 29.91992 q 0,1.64266 -0.93867,2.58132 -0.93866,0.93867 -2.58132,0.93867 h -4.10666 q -1.64266,0 -2.58132,-0.93867 -0.93867,-0.93866 -0.93867,-2.58132 v -72.74646 q 0,-1.64266 0.93867,-2.58133 0.93866,-0.93866 2.58132,-0.93866 h 24.05327 q 4.69332,0 8.799976,1.75999 4.10666,1.64267 7.03998,4.69332 3.05066,2.93333 4.69332,7.03998 1.76,4.10666 1.76,8.79998 0,6.68798 -3.28533,11.85063 -3.16799,5.16265 -8.09597,7.86131 -1.87733,1.056 -0.82133,3.40266 l 14.19729,30.15458 q 0.82133,1.76 0.11733,3.05066 -0.704,1.17333 -2.46399,1.17333 z M 92.119514,449.78912 q 2.34666,0 4.45865,-0.82133 2.229331,-0.93866 3.871996,-2.58132 1.64266,-1.64267 2.58133,-3.87199 1.05599,-2.34666 1.05599,-5.04532 0,-2.69866 -1.05599,-4.81065 -0.93867,-2.22933 -2.58133,-3.75466 -1.642665,-1.52533 -3.871996,-2.34666 -2.11199,-0.82133 -4.45865,-0.82133 h -14.43196 q -1.17333,0 -1.17333,1.17333 v 21.7066 q 0,1.17333 1.17333,1.17333 z m 89.525186,45.17321 q -1.17333,0.93866 -2.69866,0.82133 -1.40799,-0.11733 -2.69865,-0.82133 l -34.14391,-19.94661 q -0.82133,-0.46933 -1.52533,0 -0.58666,0.46933 -0.82133,1.17333 l -4.81065,15.95729 q -0.82133,2.81599 -3.98932,2.81599 h -5.74932 q -3.40266,0 -2.46399,-3.28533 l 23.4666,-73.33312 q 0.58666,-1.87733 1.52533,-2.46399 1.05599,-0.704 2.69866,-0.704 h 8.21331 q 1.64266,0 2.58132,0.704 1.056,0.58666 1.64266,2.46399 l 22.41061,70.16513 q 0.82133,2.69866 -0.93867,4.22399 z m -25.93059,-64.88515 q -0.352,-1.29066 -1.17333,-1.29066 -0.82133,0 -1.17333,1.29066 l -9.26931,30.97591 q -0.46933,1.52533 -0.11733,2.34666 0.352,0.704 1.17333,1.17333 l 22.0586,12.90663 q 1.29067,0.82133 1.87733,0.23467 0.58667,-0.704 0.352,-1.52533 z m 88.5864,64.88515 q -1.64266,0 -2.69866,-0.82133 -0.93866,-0.93867 -1.99466,-2.69866 l -29.80258,-52.21319 q -0.58666,-0.93866 -1.29066,-0.70399 -0.58667,0.23466 -0.58667,1.17333 v 51.74385 q 0,1.64266 -0.93866,2.58132 -0.93867,0.93867 -2.58133,0.93867 h -4.10665 q -1.64266,0 -2.58133,-0.93867 -0.93866,-0.93866 -0.93866,-2.58132 v -72.74646 q 0,-1.64266 0.93866,-2.58133 0.93867,-0.93866 2.58133,-0.93866 h 4.57598 q 1.76,0 2.93333,0.704 1.17333,0.58666 2.11199,2.22932 l 28.51192,49.63186 q 0.46933,0.704 1.056,0.58667 0.704,-0.11734 0.704,-1.056 v -48.57586 q 0,-1.64266 0.93866,-2.58133 0.93867,-0.93866 2.58133,-0.93866 h 4.10665 q 1.64267,0 2.58133,0.93866 0.93866,0.93867 0.93866,2.58133 v 72.74646 q 0,1.64266 -0.93866,2.58132 -0.93866,0.93867 -2.58133,0.93867 z m 26.98655,0 q -1.64266,0 -2.58133,-0.93867 -0.93866,-0.93866 -0.93866,-2.58132 v -72.74646 q 0,-1.64266 0.93866,-2.58133 0.93867,-0.93866 2.58133,-0.93866 h 20.53327 q 6.45332,0 11.7333,2.22933 5.39732,2.11199 9.15198,5.86665 3.75465,3.75465 5.74931,8.9173 2.112,5.16266 2.112,11.14664 v 23.4666 q 0,5.98398 -2.112,11.14663 -1.99466,5.16266 -5.74931,8.91731 -3.75466,3.75466 -9.15198,5.98398 -5.27998,2.112 -11.7333,2.112 z m 38.13322,-51.62652 q 0,-4.10666 -1.29066,-7.39198 -1.29066,-3.28532 -3.63732,-5.51465 -2.34666,-2.34666 -5.63199,-3.51999 -3.16799,-1.17333 -7.03998,-1.17333 h -11.7333 q -1.17333,0 -1.17333,1.17333 v 56.31984 q 0,1.17333 1.17333,1.17333 h 11.7333 q 3.87199,0 7.03998,-1.17333 3.28533,-1.17333 5.63199,-3.40266 2.34666,-2.22933 3.63732,-5.51465 1.29066,-3.28532 1.29066,-7.50931 z m 80.37309,25.81326 q 0,5.98398 -2.112,11.0293 -1.9947,4.92799 -5.7494,8.44798 -3.6373,3.51999 -8.6826,5.51465 -5.0453,1.99466 -11.02925,1.99466 -5.984,0 -11.0293,-1.99466 -5.0453,-1.99466 -8.79997,-5.51465 -3.63733,-3.51999 -5.74932,-8.44798 -1.99466,-5.04532 -1.99466,-11.0293 v -28.15992 q 0,-5.98398 1.99466,-10.91197 2.11199,-5.04532 5.74932,-8.56531 3.75467,-3.51999 8.79997,-5.51465 5.0453,-1.99466 11.0293,-1.99466 5.98395,0 11.02925,1.99466 5.0453,1.99466 8.6826,5.51465 3.7547,3.51999 5.7494,8.56531 2.112,4.92799 2.112,10.91197 z m -11.1467,-28.15992 q 0,-7.03998 -4.224,-11.7333 -4.224,-4.69332 -12.20255,-4.69332 -7.9786,0 -12.2026,4.69332 -4.224,4.69332 -4.224,11.7333 v 28.15992 q 0,7.03998 4.224,11.7333 4.224,4.69332 12.2026,4.69332 7.97855,0 12.20255,-4.69332 4.224,-4.69332 4.224,-11.7333 z m 84.4798,53.97318 q -1.6427,0 -2.5813,-0.93867 -0.9387,-0.93866 -0.9387,-2.58132 v -54.32518 q 0,-1.056 -0.704,-1.408 -0.704,-0.352 -1.1733,0.93867 l -11.8507,33.4399 q -1.1733,3.16799 -4.224,3.16799 h -7.5093 q -3.0506,0 -4.224,-3.16799 l -11.8506,-33.4399 q -0.4693,-1.056 -1.1733,-1.056 -0.704,0 -0.704,1.52533 v 54.32518 q 0,1.64266 -0.9387,2.58132 -0.9386,0.93867 -2.5813,0.93867 h -4.1067 q -1.6426,0 -2.5813,-0.93867 -0.9387,-0.93866 -0.9387,-2.58132 v -72.74646 q 0,-1.64266 0.9387,-2.58133 0.9387,-0.93866 2.5813,-0.93866 h 10.3253 q 1.6427,0 2.5814,0.82133 0.9386,0.704 1.408,1.99466 l 13.8453,40.94922 q 0.352,1.17333 1.056,1.17333 0.8213,-0.11734 1.2906,-1.17333 l 13.8453,-40.94922 q 0.4693,-1.29066 1.408,-1.99466 0.9387,-0.82133 2.5813,-0.82133 h 10.3253 q 1.6427,0 2.5814,0.93866 0.9386,0.93867 0.9386,2.58133 v 72.74646 q 0,1.64266 -0.9386,2.58132 -0.9387,0.93867 -2.5814,0.93867 z m 105.7172,0 q -1.9947,0 -3.2853,-0.82133 -1.2907,-0.82133 -2.2294,-2.22933 l -15.9573,-26.28259 q -0.5866,-0.93867 -1.4079,-0.93867 -0.704,-0.11733 -1.408,1.056 l -16.0747,26.16526 q -0.9386,1.408 -2.2293,2.22933 -1.2907,0.82133 -3.2853,0.82133 h -5.7493 q -1.8774,0 -2.3467,-1.056 -0.4693,-1.056 0.4693,-2.46399 l 22.7626,-35.5519 q 1.2907,-2.22933 0,-4.22399 l -21.1199,-32.97057 q -0.9387,-1.408 -0.352,-2.46399 0.5867,-1.056 2.464,-1.056 h 5.5146 q 3.6374,0 5.28,2.81599 l 14.5493,24.05327 q 0.5867,0.93866 1.408,0.93866 0.8214,0 1.408,-0.93866 l 14.6666,-24.05327 q 0.9387,-1.52533 2.112,-2.11199 1.1734,-0.704 3.168,-0.704 h 5.5147 q 1.8773,0 2.464,1.17333 0.5866,1.056 -0.352,2.34666 l -21.12,32.85324 q -1.5253,2.46399 0,4.57599 l 22.7626,35.31723 q 0.9387,1.40799 0.4694,2.46399 -0.4694,1.056 -2.3467,1.056 z" id="text1" aria-label="RANDOM X"/></svg>