<?xml version="1.0" encoding="UTF-8" standalone="no"?>
<!-- Created with Inkscape (http://www.inkscape.org/) -->
<svg width="650" height="550" viewBox="0 0 650 550" version="1.1" id="svg1" xml:space="preserve" xmlns="http://www.w3.org/2000/svg" xmlns:svg="http://www.w3.org/2000/svg"><defs id="defs1"><rect x="713.60242" y="702.63519" width="1054.3184" height="225.92535" id="rect2"/><rect x="710.67786" y="711.409" width="245.66641" height="89.200302" id="rect1"/></defs><path style="font-size:117.333px;font-family:SciFly;-inkscape-font-specification:SciFly;white-space:pre" d="m 109.4848,494.96233 q -2.93332,0 -4.34132,-3.16799 L 91.298184,461.99176 q -0.704,-1.64267 -2.464,-1.64267 h -11.14663 q -1.17333,0 -1.17333,1.17333 v 29.91992 q 0,1.64266 -0.93867,2.58132 -0.93866,0.93867 -2.58132,0.93867 h -4.10666 q -1.64266,0 -2.58132,-0.93867 -0.93867,-0.93866 -0.93867,-2.58132 v -72.74646 q 0,-1.64266 0.93867,-2.58133 0.93866,-0.93866 2.58132,-0.93866 h 24.05327 q 4.69332,0 8.799976,1.75999 4.10666,1.64267 7.03998,4.69332 3.05066,2.93333 4.69332,7.03998 1.76,4.10666 1.76,8.79998 0,6.68798 -3.28533,11.85063 -3.16799,5.16265 -8.09597,7.86131 -1.87733,1.056 -0.82133,3.40266 l 14.19729,30.15458 q 0.82133,1.76 0.11733,3.05066 -0.704,1.17333 -2.46399,1.17333 z M 92.119514,449.78912 q 2.34666,0 4.45865,-0.82133 2.229331,-0.93866 3.871996,-2.58132 1.64266,-1.64267 2.58133,-3.87199 1.05599,-2.34666 1.05599,-5.04532 0,-2.69866 -1.05599,-4.81065 -0.93867,-2.22933 -2.58133,-3.75466 -1.642665,-1.52533 -3.871996,-2.34666 -2.11199,-0.82133 -4.45865,-0.82133 h -14.43196 q -1.17333,0 -1.17333,1.17333 v 21.7066 q 0,1.17333 1.17333,1.17333 z m 89.525186,45.17321 q -1.17333,0.93866 -2.69866,0.82133 -1.40799,-0.11733 -2.69865,-0.82133 l -34.14391,-19.94661 q -0.82133,-0.46933 -1.52533,0 -0.58666,0.46933 -0.82133,1.17333 l -4.81065,15.95729 q -0.82133,2.81599 -3.98932,2.81599 h -5.74932 q -3.40266,0 -2.46399,-3.28533 l 23.4666,-73.33312 q 0.58666,-1.87733 1.52533,-2.46399 1.05599,-0.704 2.69866,-0.704 h 8.21331 q 1.64266,0 2.58132,0.704 1.056,0.58666 1.64266,2.46399 l 22.41061,70.16513 q 0.82133,2.69866 -0.93867,4.22399 z m -25.93059,-64.88515 q -0.352,-1.29066 -1.17333,-1.29066 -0.82133,0 -1.17333,1.29066 l -9.26931,30.97591 q -0.46933,1.52533 -0.11733,2.34666 0.352,0.704 1.17333,1.17333 l 22.0586,12.90663 q 1.29067,0.82133 1.87733,0.23467 0.58667,-0.704 0.352,-1.52533 z m 88.5864,64.88515 q -1.64266,0 -2.69866,-0.82133 -0.93866,-0.93867 -1.99466,-2.69866 l -29.80258,-52.21319 q -0.58666,-0.93866 -1.29066,-0.70399 -0.58667,0.23466 -0.58667,1.17333 v 51.74385 q 0,1.64266 -0.93866,2.58132 -0.93867,0.93867 -2.58133,0.93867 h -4.10665 q -1.64266,0 -2.58133,-0.93867 -0.93866,-0.93866 -0.93866,-2.58132 v -72.74646 q 0,-1.64266 0.93866,-2.58133 0.93867,-0.93866 2.58133,-0.93866 h 4.57598 q 1.76,0 2.93333,0.704 1.17333,0.58666 2.11199,2.22932 l 28.51192,49.63186 q 0.46933,0.704 1.056,0.58667 0.704,-0.11734 0.704,-1.056 v -48.57586 q 0,-1.64266 0.93866,-2.58133 0.93867,-0.93866 2.58133,-0.93866 h 4.10665 q 1.64267,0 2.58133,0.93866 0.93866,0.93867 0.93866,2.58133 v 72.74646 q 0,1.64266 -0.93866,2.58132 -0.93866,0.93867 -2.58133,0.93867 z m 26.98655,0 q -1.64266,0 -2.58133,-0.93867 -0.93866,-0.93866 -0.93866,-2.58132 v -72.74646 q 0,-1.64266 0.93866,-2.58133 0.93867,-0.93866 2.58133,-0.93866 h 20.53327 q 6.45332,0 11.7333,2.22933 5.39732,2.11199 9.15198,5.86665 3.75465,3.75465 5.74931,8.9173 2.112,5.16266 2.112,11.14664 v 23.4666 q 0,5.98398 -2.112,11.14663 -1.99466,5.16266 -5.74931,8.91731 -3.75466,3.75466 -9.15198,5.98398 -5.27998,2.112 -11.7333,2.112 z m 38.13322,-51.62652 q 0,-4.10666 -1.29066,-7.39198 -1.29066,-3.28532 -3.63732,-5.51465 -2.34666,-2.34666 -5.63199,-3.51999 -3.16799,-1.17333 -7.03998,-1.17333 h -11.7333 q -1.17333,0 -1.17333,1.17333 v 56.31984 q 0,1.17333 1.17333,1.17333 h 11.7333 q 3.87199,0 7.03998,-1.17333 3.28533,-1.17333 5.63199,-3.40266 2.34666,-2.22933 3.63732,-5.51465 1.29066,-3.28532 1.29066,-7.50931 z m 80.37309,25.81326 q 0,5.98398 -2.112,11.0293 -1.9947,4.92799 -5.7494,8.44798 -3.6373,3.51999 -8.6826,5.51465 -5.0453,1.99466 -11.02925,1.99466 -5.984,0 -11.0293,-1.99466 -5.0453,-1.99466 -8.79997,-5.51465 -3.63733,-3.51999 -5.74932,-8.44798 -1.99466,-5.04532 -1.99466,-11.0293 v -28.15992 q 0,-5.98398 1.99466,-10.91197 2.11199,-5.04532 5.74932,-8.56531 3.75467,-3.51999 8.79997,-5.51465 5.0453,-1.99466 11.0293,-1.99466 5.98395,0 11.02925,1.99466 5.0453,1.99466 8.6826,5.51465 3.7547,3.51999 5.7494,8.56531 2.112,4.92799 2.112,10.91197 z m -11.1467,-28.15992 q 0,-7.03998 -4.224,-11.7333 -4.224,-4.69332 -12.20255,-4.69332 -7.9786,0 -12.2026,4.69332 -4.224,4.69332 -4.224,11.7333 v 28.15992 q 0,7.03998 4.224,11.7333 4.224,4.69332 12.2026,4.69332 7.97855,0 12.20255,-4.69332 4.224,-4.69332 4.224,-11.7333 z m 84.4798,53.97318 q -1.6427,0 -2.5813,-0.93867 -0.9387,-0.93866 -0.9387,-2.58132 v -54.32518 q 0,-1.056 -0.704,-1.408 -0.704,-0.352 -1.1733,0.93867 l -11.8507,33.4399 q -1.1733,3.16799 -4.224,3.16799 h -7.5093 q -3.0506,0 -4.224,-3.16799 l -11.8506,-33.4399 q -0.4693,-1.056 -1.1733,-1.056 -0.704,0 -0.704,1.52533 v 54.32518 q 0,1.64266 -0.9387,2.58132 -0.9386,0.93867 -2.5813,0.93867 h -4.1067 q -1.6426,0 -2.5813,-0.93867 -0.9387,-0.93866 -0.9387,-2.58132 v -72.74646 q 0,-1.64266 0.9387,-2.58133 0.9387,-0.93866 2.5813,-0.93866 h 10.3253 q 1.6427,0 2.5814,0.82133 0.9386,0.704 1.408,1.99466 l 13.8453,40.94922 q 0.352,1.17333 1.056,1.17333 0.8213,-0.11734 1.2906,-1.17333 l 13.8453,-40.94922 q 0.4693,-1.29066 1.408,-1.99466 0.9387,-0.82133 2.5813,-0.82133 h 10.3253 q 1.6427,0 2.5814,0.93866 0.9386,0.93867 0.9386,2.58133 v 72.74646 q 0,1.64266 -0.9386,2.58132 -0.9387,0.93867 -2.5814,0.93867 z m 105.7172,0 q -1.9947,0 -3.2853,-0.82133 -1.2907,-0.82133 -2.2294,-2.22933 l -15.9573,-26.28259 q -0.5866,-0.93867 -1.4079,-0.93867 -0.704,-0.11733 -1.408,1.056 l -16.0747,26.16526 q -0.9386,1.408 -2.2293,2.22933 -1.2907,0.82133 -3.2853,0.82133 h -5.7493 q -1.8774,0 -2.3467,-1.056 -0.4693,-1.056 0.4693,-2.46399 l 22.7626,-35.5519 q 1.2907,-2.22933 0,-4.22399 l -21.1199,-32.97057 q -0.9387,-1.408 -0.352,-2.46399 0.5867,-1.056 2.464,-1.056 h 5.5146 q 3.6374,0 5.28,2.81599 l 14.5493,24.05327 q 0.5867,0.93866 1.408,0.93866 0.8214,0 1.408,-0.93866 l 14.6666,-24.05327 q 0.9387,-1.52533 2.112,-2.11199 1.1734,-0.704 3.168,-0.704 h 5.5147 q 1.8773,0 2.464,1.17333 0.5866,1.056 -0.352,2.34666 l -21.12,32.85324 q -1.5253,2.46399 0,4.57599 l 22.7626,35.31723 q 0.9387,1.40799 0.4694,2.46399 -0.4694,1.056 -2.3467,1.056 z" id="text1" aria-label="RANDOM X"/><g id="layer3" style="display:inline"><g id="layer4"><path style="display:inline;fill:#000000" d="m 258.58699,373.11051 6.03199,21.56892 c 0,0 -0.2585,-6.85912 16.74074,-16.91243 16.99924,-10.05331 53.73953,-36.74029 53.73953,-36.74029 l -52.56709,25.32066 c 0,0 -21.75172,8.7738 -23.94517,6.76314 z" id="path11"/><path style="display:inline;fill:#000000" d="m 230.43772,330.7952 c 8.43587,-0.32907 19.22783,-0.96421 25.26858,-1.85536 7.29539,-1.21098 14.83129,-3.16553 22.39541,-3.19404 5.99003,0.19474 11.64629,2.59715 16.56486,5.90123 3.84552,2.36648 7.69105,4.73295 11.53657,7.09943 -6.26468,5.64351 -13.62009,10.75288 -22.11448,12.08881 -7.40078,0.56038 -14.76251,-1.20133 -21.86015,-3.12961 -3.07901,-0.93806 -1.71707,-0.0575 -8.95672,-3.55624 -7.61136,-4.4514 -15.22271,-8.90281 -22.83407,-13.35422 z" id="path12"/><path style="display:inline;fill:#000000;stroke-width:0.799973" d="m 264.5273,276.12868 c 2.89013,6.22534 6.43979,14.2714 8.05743,18.98023 1.86071,5.73843 3.29763,11.93547 6.07286,17.41544 2.34752,4.25638 6.09379,7.42612 10.18909,9.71725 3.05243,1.87427 6.10486,3.74857 9.15728,5.62285 1.57608,-6.69041 2.38088,-13.96493 0.16329,-20.6181 -2.34818,-5.56553 -6.28288,-10.21368 -10.23483,-14.60712 -1.7844,-1.86702 -0.67409,-1.21947 -5.76124,-5.11426 -5.88128,-3.79876 -11.76257,-7.59754 -17.64388,-11.39629 z" id="path12-7"/><path style="display:inline;fill:#000000;stroke-width:0.84144" d="m 195.58748,294.28244 c 7.11458,2.0149 16.27946,4.43068 21.56763,5.37802 6.4263,1.04225 13.27225,1.58701 19.57291,3.59517 4.92531,1.75452 8.92104,5.08823 12.03686,8.90554 2.50006,2.82066 5.00015,5.6413 7.50023,8.46195 -6.87785,2.58479 -14.5053,4.47315 -21.9659,3.2036 -6.32182,-1.5623 -11.92545,-4.86935 -17.26021,-8.23143 -2.28428,-1.53527 -1.41138,-0.50421 -6.4005,-5.09151 -5.01703,-5.40709 -10.03403,-10.81421 -15.05102,-16.22134 z" id="path12-0"/><path style="display:inline;fill:#000000;stroke-width:0.6964" d="m 238.32371,257.28762 c 0.88489,5.90681 1.87274,13.49122 2.06517,17.80629 0.1417,5.22885 -0.18564,10.72166 0.78722,15.98337 0.91668,4.13844 3.27561,7.75745 6.14474,10.7463 2.09726,2.365 4.19452,4.73002 6.29177,7.09503 2.97713,-5.08945 5.45166,-10.86754 5.23684,-16.94611 -0.59338,-5.21739 -2.74477,-10.10533 -4.97359,-14.788 -1.03524,-2.01817 -0.26389,-1.1861 -3.56846,-5.76303 -3.99455,-4.71128 -7.98911,-9.42255 -11.98368,-14.13385 z" id="path12-78"/><path style="display:inline;fill:#000000;stroke-width:0.816261" d="m 171.30679,252.28178 c 5.95311,3.52941 13.67229,7.90367 18.25169,9.99976 5.5956,2.44279 11.71546,4.50321 16.92466,7.84325 4.02023,2.78797 6.7452,6.88009 8.52809,11.23783 1.49861,3.26444 2.99722,6.5289 4.49585,9.79333 -7.028,0.93093 -14.54725,1.02618 -21.02671,-1.86682 -5.35385,-2.9176 -9.55959,-7.34554 -13.50351,-11.76578 -1.66187,-1.98434 -1.15162,-0.80028 -4.43477,-6.31676 -3.07843,-6.30826 -6.15686,-12.61653 -9.2353,-18.92481 z" id="path12-4"/><path style="display:inline;fill:#000000;stroke-width:0.665855" d="m 217.53032,231.02177 c -0.814,5.37268 -0.82975,10.46267 -3.0377,16.05363 -2.20799,5.59096 -3.21429,9.32828 -3.76047,14.15785 -0.28273,3.8344 0.97944,7.55588 2.91415,10.84729 1.36345,2.56341 2.7269,5.12684 4.09034,7.69026 4.32596,-3.74469 8.35967,-8.2102 9.87176,-13.57451 0.90144,-4.70106 0.19956,-9.48268 -0.6355,-14.10318 -0.43223,-2.00904 0.0799,-1.09923 -1.82773,-5.88175 -2.53838,-5.06316 -5.07677,-10.12632 -7.61517,-15.1895 z" id="path12-78-61"/><path style="display:inline;fill:#000000;stroke-width:0.760736" d="m 160.76713,209.42975 c 4.30841,4.45918 7.65971,9.15737 13.45902,12.94446 5.79936,3.78707 9.22186,6.61302 12.91535,10.73775 2.78652,3.36943 4.00522,7.60302 4.29177,11.86048 0.36177,3.22592 0.72355,6.45186 1.08533,9.67781 -6.63717,-0.75141 -13.4642,-2.35279 -18.44211,-6.36653 -3.95279,-3.78314 -6.40808,-8.64602 -8.629,-13.4434 -0.89884,-2.12928 -0.79771,-0.96666 -2.08774,-6.58636 -0.86409,-6.27476 -1.72817,-12.54954 -2.59225,-18.82432 z" id="path12-78-61-4"/><path style="display:inline;fill:#000000;stroke-width:0.582477" d="m 206.45859,201.5384 c -1.95303,4.57114 -4.56771,10.37694 -6.32174,13.52167 -2.19142,3.77148 -4.83671,7.52925 -6.4434,11.68027 -1.15445,3.32983 -1.0414,6.90917 -0.28415,10.26 0.47449,2.57729 0.94896,5.15458 1.42343,7.73185 4.37854,-2.33575 8.69683,-5.37566 11.20826,-9.78148 1.86077,-3.95694 2.45393,-8.34786 2.90122,-12.62629 0.13896,-1.87596 0.33004,-0.95484 -0.0445,-5.61932 -0.81301,-5.05556 -1.62605,-10.11112 -2.43907,-15.1667 z" id="path12-78-6"/><path style="display:inline;fill:#000000;stroke-width:0.689502" d="m 161.00849,168.26477 c 2.81312,4.88257 4.73691,9.76861 8.99982,14.38045 4.26293,4.61182 6.65162,7.85652 8.99831,12.30945 1.71506,3.58741 1.8717,7.5988 1.20712,11.42872 -0.37691,2.93341 -0.75383,5.86682 -1.13074,8.80026 -5.64915,-2.10753 -11.28178,-5.00849 -14.77681,-9.64237 -2.64715,-4.207 -3.7511,-9.04406 -4.66394,-13.7722 -0.32908,-2.07966 -0.49052,-1.02882 -0.41157,-6.28235 0.59271,-5.74065 1.18543,-11.48132 1.77814,-17.22198 z" id="path12-78-61-4-1"/><path style="display:inline;fill:#000000;stroke-width:0.527934" d="m 202.70738,171.21217 c -2.69273,3.62074 -6.23021,8.19029 -8.44202,10.59198 -2.72951,2.86128 -5.8534,5.61176 -8.15259,8.93601 -1.72668,2.69581 -2.39735,5.88791 -2.45489,9.01781 -0.13875,2.38389 -0.27753,4.76779 -0.41631,7.15167 4.33558,-1.11537 8.7698,-2.86697 11.91586,-6.22004 2.47989,-3.09727 3.94334,-6.85409 5.25488,-10.54306 0.52503,-1.62993 0.49427,-0.77325 1.16931,-4.98248 0.37528,-4.65062 0.75053,-9.30125 1.12579,-13.95188 z" id="path12-78-6-8"/><path style="display:inline;fill:#000000;stroke-width:0.62823" d="m 168.08883,134.45121 c 1.65182,4.86575 2.50882,9.57744 5.50305,14.45716 2.99423,4.87971 4.55564,8.20499 5.86664,12.60389 0.89944,3.51289 0.33248,7.12972 -0.93592,10.43906 -0.8535,2.55803 -1.70701,5.11607 -2.56051,7.67414 -4.67348,-2.88398 -9.19239,-6.47496 -11.497,-11.2387 -1.62264,-4.23196 -1.75614,-8.75497 -1.73817,-13.14673 0.0726,-1.91891 -0.25675,-1.00721 0.7395,-5.69381 1.5409,-5.03164 3.08181,-10.06331 4.6227,-15.09497 z" id="path12-78-61-4-1-9"/><path style="display:inline;fill:#000000;stroke-width:0.48102" d="m 204.80775,144.45715 c -3.04272,2.76378 -7.007,6.22722 -9.40542,7.98525 -2.94174,2.07776 -6.21614,3.98669 -8.85515,6.55473 -2.01703,2.10692 -3.17845,4.8445 -3.78137,7.63479 -0.54398,2.10844 -1.088,4.2169 -1.632,6.32531 4.06835,-0.23177 8.33692,-1.01517 11.73726,-3.45961 2.7604,-2.33302 4.7293,-5.43579 6.5506,-8.50469 0.75608,-1.36559 0.57766,-0.60452 1.92221,-4.25139 1.15465,-4.09478 2.30926,-8.18958 3.46389,-12.28437 z" id="path12-78-6-8-1"/><path style="display:inline;fill:#000000;stroke-width:0.556026" d="m 180.4155,105.35942 c 0.47862,4.51856 0.30045,8.74954 1.9364,13.54144 1.63595,4.7919 2.33685,7.9641 2.61198,12.01364 0.0923,3.20518 -1.10292,6.21461 -2.84432,8.82227 -1.23635,2.04037 -2.4727,4.08074 -3.70907,6.12113 -3.47623,-3.39727 -6.68103,-7.3743 -7.74366,-11.93193 -0.577,-3.96621 0.18959,-7.89361 1.06149,-11.67832 0.43691,-1.64107 -0.0254,-0.91877 1.74929,-4.7674 2.31271,-4.04023 4.62543,-8.08049 6.93813,-12.12074 z" id="path12-78-61-4-1-9-3"/><path style="display:inline;fill:#000000;stroke-width:0.425735" d="m 210.19506,121.13714 c -3.16828,1.79174 -7.26937,4.0076 -9.68477,5.05721 -2.94725,1.21964 -6.14905,2.22891 -8.93031,3.93038 -2.15384,1.42478 -3.6913,3.56009 -4.75639,5.84957 -0.88122,1.7128 -1.76247,3.42561 -2.64369,5.13839 3.56086,0.59193 7.4023,0.74701 10.81735,-0.6997 2.84033,-1.47512 5.14677,-3.76826 7.31905,-6.06091 0.91965,-1.03076 0.61707,-0.40901 2.49008,-3.293 1.79624,-3.3073 3.59246,-6.61464 5.38869,-9.92195 z" id="path12-78-6-8-1-6"/><path style="display:inline;fill:#000000;stroke-width:0.496361" d="m 196.2895,81.257297 c -0.25161,4.17928 -1.02064,7.98949 -0.32646,12.60729 0.69423,4.6178 0.82833,7.611873 0.47185,11.332043 -0.38902,2.92382 -1.84604,5.45808 -3.70964,7.53786 -1.35065,1.64809 -2.70132,3.29619 -4.052,4.9443 -2.46502,-3.65511 -4.61427,-7.79168 -4.85435,-12.10253 0.0872,-3.69423 1.31312,-7.132093 2.60789,-10.423123 0.61153,-1.4173 0.1124,-0.83794 2.18539,-4.03838 2.55918,-3.28576 5.11834,-6.57155 7.67751,-9.85733 z" id="path12-78-61-4-1-9-3-0"/><path style="display:inline;fill:#000000;stroke-width:0.380051" d="m 219.35046,100.47679 c -2.95979,1.10449 -6.77594,2.44031 -8.98623,2.99525 -2.68808,0.62169 -5.56227,1.0106 -8.17926,2.09686 -2.04228,0.93844 -3.66324,2.62313 -4.90441,4.52548 -1.00042,1.40929 -2.00086,2.81856 -3.00127,4.22783 2.94638,1.12327 6.19545,1.89629 9.31508,1.14552 2.63429,-0.87114 4.93323,-2.57249 7.11782,-4.29547 0.93364,-0.78402 0.58523,-0.2696 2.60122,-2.57846 2.01235,-2.70566 4.0247,-5.41136 6.03705,-8.11701 z" id="path12-78-6-8-1-6-6"/><path style="display:inline;fill:#000000;stroke-width:0.445102" d="m 212.53136,62.927907 c -0.77288,3.62971 -1.96269,6.87097 -1.94259,11.00388 0.0201,4.1329 -0.25092,6.77283 -1.05804,9.98712 -0.7322,2.51254 -2.37367,4.54938 -4.32123,6.13691 -1.42992,1.27388 -2.85985,2.54776 -4.2898,3.82167 -1.73815,-3.51237 -3.12943,-7.40679 -2.7814,-11.21365 0.56162,-3.22546 2.1135,-6.08301 3.70808,-8.80327 0.73521,-1.16471 0.21066,-0.71996 2.49307,-3.26292 2.7307,-2.55652 5.46138,-5.11307 8.19206,-7.6696 z" id="path12-78-61-4-1-9-3-0-6"/><path style="display:inline;fill:#000000;stroke-width:0.340803" d="m 230.75101,82.667757 c -2.80556,0.59515 -6.41129,1.28519 -8.47111,1.49321 -2.49812,0.20636 -5.13311,0.18549 -7.62808,0.8077 -1.95893,0.56512 -3.63665,1.83707 -5.00141,3.34748 -1.08379,1.10873 -2.16761,2.21747 -3.25139,3.3262 2.50211,1.35486 5.32216,2.44096 8.22516,2.17582 2.48239,-0.43168 4.77185,-1.63288 6.96134,-2.86742 0.94198,-0.56938 0.56144,-0.16255 2.67598,-1.93158 2.16317,-2.11713 4.32634,-4.23429 6.48951,-6.35141 z" id="path12-78-6-8-1-6-6-2"/><path style="display:inline;fill:#000000" d="m 251.43712,48.065087 c 0,0 -29.08131,14.28215 -33.1527,20.29229 -4.07138,6.01014 -1.68025,10.14615 -1.68025,10.14615 0,0 4.58839,1.16325 12.47265,-4.07138 7.88427,-5.23464 22.3603,-26.36706 22.3603,-26.36706 z" id="path13"/></g><g id="layer4-1" style="display:inline" transform="matrix(-1,0,0,1,1919.66,0.61052839)"><path style="display:inline;fill:#000000" d="m 1531.9994,373.11051 6.032,21.56892 c 0,0 -0.2585,-6.85912 16.7408,-16.91243 16.9992,-10.05331 53.7395,-36.74029 53.7395,-36.74029 l -52.5671,25.32066 c 0,0 -21.7517,8.7738 -23.9452,6.76314 z" id="path11-7"/><path style="display:inline;fill:#000000" d="m 1503.8502,330.7952 c 8.4358,-0.32907 19.2278,-0.96421 25.2686,-1.85536 7.2953,-1.21098 14.8312,-3.16553 22.3954,-3.19404 5.99,0.19474 11.6463,2.59715 16.5648,5.90123 3.8455,2.36648 7.6911,4.73295 11.5366,7.09943 -6.2647,5.64351 -13.6201,10.75288 -22.1145,12.08881 -7.4008,0.56038 -14.7625,-1.20133 -21.8601,-3.12961 -3.079,-0.93806 -1.7171,-0.0575 -8.9568,-3.55624 -7.6113,-4.4514 -15.2227,-8.90281 -22.834,-13.35422 z" id="path12-09"/><path style="display:inline;fill:#000000;stroke-width:0.799973" d="m 1537.9398,276.12868 c 2.8901,6.22534 6.4397,14.2714 8.0574,18.98023 1.8607,5.73843 3.2976,11.93547 6.0728,17.41544 2.3476,4.25638 6.0938,7.42612 10.1891,9.71725 3.0525,1.87427 6.1049,3.74857 9.1573,5.62285 1.5761,-6.69041 2.3809,-13.96493 0.1633,-20.6181 -2.3482,-5.56553 -6.2829,-10.21368 -10.2348,-14.60712 -1.7844,-1.86702 -0.6741,-1.21947 -5.7613,-5.11426 -5.8812,-3.79876 -11.7625,-7.59754 -17.6438,-11.39629 z" id="path12-7-4"/><path style="display:inline;fill:#000000;stroke-width:0.84144" d="m 1468.9999,294.28244 c 7.1146,2.0149 16.2795,4.43068 21.5677,5.37802 6.4263,1.04225 13.2722,1.58701 19.5729,3.59517 4.9253,1.75452 8.921,5.08823 12.0368,8.90554 2.5001,2.82066 5.0002,5.6413 7.5003,8.46195 -6.8779,2.58479 -14.5053,4.47315 -21.9659,3.2036 -6.3219,-1.5623 -11.9255,-4.86935 -17.2602,-8.23143 -2.2843,-1.53527 -1.4114,-0.50421 -6.4005,-5.09151 -5.0171,-5.40709 -10.0341,-10.81421 -15.0511,-16.22134 z" id="path12-0-6"/><path style="display:inline;fill:#000000;stroke-width:0.6964" d="m 1511.7362,257.28762 c 0.8849,5.90681 1.8727,13.49122 2.0651,17.80629 0.1417,5.22885 -0.1856,10.72166 0.7873,15.98337 0.9166,4.13844 3.2756,7.75745 6.1447,10.7463 2.0973,2.365 4.1945,4.73002 6.2918,7.09503 2.9771,-5.08945 5.4516,-10.86754 5.2368,-16.94611 -0.5934,-5.21739 -2.7448,-10.10533 -4.9736,-14.788 -1.0352,-2.01817 -0.2639,-1.1861 -3.5684,-5.76303 -3.9946,-4.71128 -7.9892,-9.42255 -11.9837,-14.13385 z" id="path12-78-8"/><path style="display:inline;fill:#000000;stroke-width:0.816261" d="m 1444.7192,252.28178 c 5.9532,3.52941 13.6723,7.90367 18.2517,9.99976 5.5956,2.44279 11.7155,4.50321 16.9247,7.84325 4.0202,2.78797 6.7452,6.88009 8.5281,11.23783 1.4986,3.26444 2.9972,6.5289 4.4958,9.79333 -7.028,0.93093 -14.5472,1.02618 -21.0267,-1.86682 -5.3538,-2.9176 -9.5596,-7.34554 -13.5035,-11.76578 -1.6619,-1.98434 -1.1516,-0.80028 -4.4348,-6.31676 -3.0784,-6.30826 -6.1568,-12.61653 -9.2353,-18.92481 z" id="path12-4-2"/><path style="display:inline;fill:#000000;stroke-width:0.665855" d="m 1490.9428,231.02177 c -0.814,5.37268 -0.8298,10.46267 -3.0377,16.05363 -2.208,5.59096 -3.2143,9.32828 -3.7605,14.15785 -0.2827,3.8344 0.9794,7.55588 2.9142,10.84729 1.3634,2.56341 2.7269,5.12684 4.0903,7.69026 4.326,-3.74469 8.3597,-8.2102 9.8718,-13.57451 0.9014,-4.70106 0.1995,-9.48268 -0.6355,-14.10318 -0.4323,-2.00904 0.08,-1.09923 -1.8278,-5.88175 -2.5384,-5.06316 -5.0767,-10.12632 -7.6151,-15.1895 z" id="path12-78-61-3"/><path style="display:inline;fill:#000000;stroke-width:0.760736" d="m 1434.1796,209.42975 c 4.3084,4.45918 7.6597,9.15737 13.459,12.94446 5.7994,3.78707 9.2219,6.61302 12.9154,10.73775 2.7865,3.36943 4.0052,7.60302 4.2917,11.86048 0.3618,3.22592 0.7236,6.45186 1.0854,9.67781 -6.6372,-0.75141 -13.4642,-2.35279 -18.4422,-6.36653 -3.9527,-3.78314 -6.408,-8.64602 -8.629,-13.4434 -0.8988,-2.12928 -0.7977,-0.96666 -2.0877,-6.58636 -0.8641,-6.27476 -1.7282,-12.54954 -2.5922,-18.82432 z" id="path12-78-61-4-9"/><path style="display:inline;fill:#000000;stroke-width:0.582477" d="m 1479.871,201.5384 c -1.953,4.57114 -4.5677,10.37694 -6.3217,13.52167 -2.1914,3.77148 -4.8367,7.52925 -6.4434,11.68027 -1.1544,3.32983 -1.0414,6.90917 -0.2841,10.26 0.4744,2.57729 0.9489,5.15458 1.4234,7.73185 4.3785,-2.33575 8.6968,-5.37566 11.2082,-9.78148 1.8608,-3.95694 2.454,-8.34786 2.9013,-12.62629 0.1389,-1.87596 0.33,-0.95484 -0.044,-5.61932 -0.813,-5.05556 -1.6261,-10.11112 -2.4391,-15.1667 z" id="path12-78-6-4"/><path style="display:inline;fill:#000000;stroke-width:0.689502" d="m 1434.4209,168.26477 c 2.8132,4.88257 4.737,9.76861 8.9999,14.38045 4.2629,4.61182 6.6516,7.85652 8.9983,12.30945 1.715,3.58741 1.8717,7.5988 1.2071,11.42872 -0.3769,2.93341 -0.7538,5.86682 -1.1307,8.80026 -5.6492,-2.10753 -11.2818,-5.00849 -14.7769,-9.64237 -2.6471,-4.207 -3.7511,-9.04406 -4.6639,-13.7722 -0.3291,-2.07966 -0.4905,-1.02882 -0.4116,-6.28235 0.5927,-5.74065 1.1855,-11.48132 1.7782,-17.22198 z" id="path12-78-61-4-1-3"/><path style="display:inline;fill:#000000;stroke-width:0.527934" d="m 1476.1198,171.21217 c -2.6927,3.62074 -6.2302,8.19029 -8.442,10.59198 -2.7295,2.86128 -5.8534,5.61176 -8.1526,8.93601 -1.7267,2.69581 -2.3973,5.88791 -2.4549,9.01781 -0.1387,2.38389 -0.2775,4.76779 -0.4163,7.15167 4.3356,-1.11537 8.7698,-2.86697 11.9159,-6.22004 2.4799,-3.09727 3.9433,-6.85409 5.2549,-10.54306 0.525,-1.62993 0.4942,-0.77325 1.1693,-4.98248 0.3753,-4.65062 0.7505,-9.30125 1.1258,-13.95188 z" id="path12-78-6-8-2"/><path style="display:inline;fill:#000000;stroke-width:0.62823" d="m 1441.5013,134.45121 c 1.6518,4.86575 2.5088,9.57744 5.503,14.45716 2.9943,4.87971 4.5557,8.20499 5.8667,12.60389 0.8994,3.51289 0.3325,7.12972 -0.9359,10.43906 -0.8535,2.55803 -1.7071,5.11607 -2.5606,7.67414 -4.6734,-2.88398 -9.1923,-6.47496 -11.497,-11.2387 -1.6226,-4.23196 -1.7561,-8.75497 -1.7381,-13.14673 0.073,-1.91891 -0.2568,-1.00721 0.7395,-5.69381 1.5409,-5.03164 3.0818,-10.06331 4.6227,-15.09497 z" id="path12-78-61-4-1-9-1"/><path style="display:inline;fill:#000000;stroke-width:0.48102" d="m 1478.2202,144.45715 c -3.0427,2.76378 -7.007,6.22722 -9.4054,7.98525 -2.9418,2.07776 -6.2162,3.98669 -8.8552,6.55473 -2.017,2.10692 -3.1784,4.8445 -3.7813,7.63479 -0.544,2.10844 -1.088,4.2169 -1.632,6.32531 4.0683,-0.23177 8.3369,-1.01517 11.7372,-3.45961 2.7604,-2.33302 4.7293,-5.43579 6.5506,-8.50469 0.7561,-1.36559 0.5777,-0.60452 1.9222,-4.25139 1.1547,-4.09478 2.3093,-8.18958 3.4639,-12.28437 z" id="path12-78-6-8-1-4"/><path style="display:inline;fill:#000000;stroke-width:0.556026" d="m 1453.828,105.35942 c 0.4786,4.51856 0.3004,8.74954 1.9364,13.54144 1.6359,4.7919 2.3368,7.9641 2.6119,12.01364 0.092,3.20518 -1.1029,6.21461 -2.8443,8.82227 -1.2363,2.04037 -2.4727,4.08074 -3.7091,6.12113 -3.4762,-3.39727 -6.681,-7.3743 -7.7436,-11.93193 -0.577,-3.96621 0.1896,-7.89361 1.0615,-11.67832 0.4369,-1.64107 -0.025,-0.91877 1.7493,-4.7674 2.3127,-4.04023 4.6254,-8.08049 6.9381,-12.12074 z" id="path12-78-61-4-1-9-3-4"/><path style="display:inline;fill:#000000;stroke-width:0.425735" d="m 1483.6075,121.13714 c -3.1683,1.79174 -7.2694,4.0076 -9.6848,5.05721 -2.9472,1.21964 -6.149,2.22891 -8.9303,3.93038 -2.1538,1.42478 -3.6913,3.56009 -4.7564,5.84957 -0.8812,1.7128 -1.7624,3.42561 -2.6436,5.13839 3.5608,0.59193 7.4023,0.74701 10.8173,-0.6997 2.8403,-1.47512 5.1468,-3.76826 7.3191,-6.06091 0.9196,-1.03076 0.617,-0.40901 2.49,-3.293 1.7963,-3.3073 3.5925,-6.61464 5.3887,-9.92195 z" id="path12-78-6-8-1-6-7"/><path style="display:inline;fill:#000000;stroke-width:0.496361" d="m 1469.702,81.257297 c -0.2517,4.17928 -1.0207,7.98949 -0.3265,12.60729 0.6942,4.6178 0.8283,7.611873 0.4718,11.332043 -0.389,2.92382 -1.846,5.45808 -3.7096,7.53786 -1.3506,1.64809 -2.7013,3.29619 -4.052,4.9443 -2.465,-3.65511 -4.6143,-7.79168 -4.8543,-12.10253 0.087,-3.69423 1.3131,-7.132093 2.6078,-10.423123 0.6116,-1.4173 0.1124,-0.83794 2.1854,-4.03838 2.5592,-3.28576 5.1184,-6.57155 7.6775,-9.85733 z" id="path12-78-61-4-1-9-3-0-8"/><path style="display:inline;fill:#000000;stroke-width:0.380051" d="m 1492.7629,100.47679 c -2.9598,1.10449 -6.7759,2.44031 -8.9862,2.99525 -2.6881,0.62169 -5.5623,1.0106 -8.1793,2.09686 -2.0423,0.93844 -3.6632,2.62313 -4.9044,4.52548 -1.0004,1.40929 -2.0008,2.81856 -3.0013,4.22783 2.9464,1.12327 6.1955,1.89629 9.3151,1.14552 2.6343,-0.87114 4.9333,-2.57249 7.1178,-4.29547 0.9337,-0.78402 0.5853,-0.2696 2.6013,-2.57846 2.0123,-2.70566 4.0247,-5.41136 6.037,-8.11701 z" id="path12-78-6-8-1-6-6-4"/><path style="display:inline;fill:#000000;stroke-width:0.445102" d="m 1485.9438,62.927907 c -0.7729,3.62971 -1.9627,6.87097 -1.9426,11.00388 0.02,4.1329 -0.2509,6.77283 -1.058,9.98712 -0.7322,2.51254 -2.3737,4.54938 -4.3212,6.13691 -1.43,1.27388 -2.8599,2.54776 -4.2898,3.82167 -1.7382,-3.51237 -3.1295,-7.40679 -2.7814,-11.21365 0.5616,-3.22546 2.1135,-6.08301 3.708,-8.80327 0.7352,-1.16471 0.2107,-0.71996 2.4931,-3.26292 2.7307,-2.55652 5.4614,-5.11307 8.1921,-7.6696 z" id="path12-78-61-4-1-9-3-0-6-5"/><path style="display:inline;fill:#000000;stroke-width:0.340803" d="m 1504.1635,82.667757 c -2.8056,0.59515 -6.4113,1.28519 -8.4711,1.49321 -2.4982,0.20636 -5.1332,0.18549 -7.6281,0.8077 -1.959,0.56512 -3.6367,1.83707 -5.0014,3.34748 -1.0838,1.10873 -2.1676,2.21747 -3.2514,3.3262 2.5021,1.35486 5.3221,2.44096 8.2251,2.17582 2.4824,-0.43168 4.7719,-1.63288 6.9614,-2.86742 0.942,-0.56938 0.5614,-0.16255 2.676,-1.93158 2.1631,-2.11713 4.3263,-4.23429 6.4895,-6.35141 z" id="path12-78-6-8-1-6-6-2-0"/><path style="display:inline;fill:#000000" d="m 1524.8496,48.065087 c 0,0 -29.0813,14.28215 -33.1527,20.29229 -4.0714,6.01014 -1.6803,10.14615 -1.6803,10.14615 0,0 4.5884,1.16325 12.4727,-4.07138 7.8842,-5.23464 22.3603,-26.36706 22.3603,-26.36706 z" id="path13-0"/></g></g><g id="layer2" style="display:inline"><path style="display:inline;fill:#000000" d="m 263.27001,270.08382 h 18.01933 L 378.34987,65.135867 h -18.06508 z" id="path6"/><path style="display:inline;fill:#000000" d="m 363.27094,270.11709 18.12743,0.0323 -78.08896,-160.01462 -18.00872,-0.0175 z" id="path7"/><path style="fill:#000000" d="m 283.29928,65.139507 10.03305,28.01501 -17.98391,-0.0134 -10.21077,-27.98269 z" id="path8"/><path style="display:inline;fill:#000000" d="m 246.30159,245.14506 0.023,-150.015343 96.96077,0.0224 -6.36802,12.959863 -75.60971,0.0161 -0.0162,62.02151 46.3371,-0.002 -6.06335,12.98615 -40.24841,-0.0161 -0.0436,62.02922 z" id="path9"/><path style="display:inline;fill:#000000" d="m 335.25594,170.14198 34.08423,-0.005 c 0,0 20.6397,-0.0784 20.8982,-32.52022 0.2585,-32.44182 -28.55075,-29.45014 -28.55075,-29.45014 l 6.04245,-13.086593 c 0,0 35.7022,0.95599 35.5729,43.091583 -0.1292,42.1356 -22.1137,40.2804 -22.1137,40.2804 0,0 18.0226,5.40378 18.119,18.71681 0.1329,18.36163 -0.014,47.962 -0.014,47.962 l -16.0179,0.0229 -0.1977,-34.2977 c 0,0 1.2925,-21.84329 -12.0203,-25.59155 -12.6706,-3.56746 -28.75697,-2.1444 -28.75697,-2.1444 z" id="path10"/></g></svg>